<?xml version="1.0" standalone="no"?>
<!DOCTYPE svg PUBLIC "-//W3C//DTD SVG 20010904//EN"
 "http://www.w3.org/TR/2001/REC-SVG-20010904/DTD/svg10.dtd">
<svg version="1.0" xmlns="http://www.w3.org/2000/svg"
 width="126.000000pt" height="126.000000pt" viewBox="0 0 126.000000 126.000000"
 preserveAspectRatio="xMidYMid meet">
<metadata>
Created by potrace 1.14, written by Peter Selinger 2001-2017
</metadata>
<g transform="translate(0.000000,126.000000) scale(0.100000,-0.100000)"
fill="#000000" stroke="none">
<path d="M529 1243 c-8 -2 -19 -18 -25 -35 -12 -43 -58 -57 -90 -27 -33 31
-61 18 -56 -24 3 -27 -2 -35 -26 -48 -27 -15 -31 -15 -53 2 -22 16 -25 16 -41
2 -13 -11 -15 -20 -8 -34 15 -26 13 -36 -15 -63 -22 -22 -28 -24 -51 -14 -22
11 -28 9 -40 -7 -13 -17 -12 -22 5 -38 18 -19 19 -22 3 -54 -14 -30 -21 -34
-45 -30 -21 3 -31 -2 -39 -17 -9 -17 -7 -23 14 -39 23 -17 24 -22 14 -58 -9
-34 -14 -39 -38 -39 -23 0 -28 -4 -28 -25 0 -18 7 -28 25 -35 20 -8 25 -16 25
-45 0 -28 -5 -38 -25 -47 -36 -16 -30 -51 10 -58 25 -4 32 -12 39 -42 8 -32 7
-39 -13 -55 -32 -26 -19 -55 23 -51 26 3 34 -2 49 -31 17 -31 17 -34 2 -51
-13 -14 -14 -23 -6 -39 10 -17 15 -19 42 -9 27 9 34 8 57 -15 23 -23 24 -29
13 -53 -10 -22 -9 -29 1 -35 19 -12 32 -11 53 5 16 12 24 12 51 -2 28 -13 32
-19 27 -43 -4 -21 0 -30 17 -39 18 -10 25 -10 31 1 23 38 24 39 61 29 28 -8
37 -16 42 -40 4 -24 11 -30 30 -30 19 0 26 7 30 28 6 24 11 27 46 27 35 0 40
-3 46 -27 10 -46 64 -31 64 17 0 16 9 24 35 32 32 10 36 9 53 -14 16 -22 22
-24 40 -14 17 9 20 18 16 40 -5 24 -1 31 27 49 33 21 34 21 54 2 35 -33 77 14
43 48 -10 10 -6 18 15 39 24 24 30 26 55 17 25 -10 31 -8 41 9 11 17 10 23 -7
40 -19 19 -20 21 -4 54 15 31 20 34 49 30 22 -4 33 -1 37 10 11 27 6 40 -18
51 -23 10 -24 13 -14 46 11 33 26 43 61 37 4 0 7 2 8 7 0 4 2 17 4 28 4 17 -2
23 -25 28 -27 5 -30 9 -30 44 0 32 5 41 25 50 17 8 25 20 25 37 0 22 -4 25
-34 25 -31 0 -34 3 -40 35 -6 30 -3 39 16 55 31 25 14 56 -28 52 -23 -2 -33 3
-47 27 -16 28 -16 31 0 59 14 25 15 33 4 46 -12 14 -16 14 -42 0 -27 -14 -31
-13 -55 9 -23 21 -24 26 -13 51 11 22 10 29 -3 43 -15 14 -19 14 -44 -4 -26
-19 -29 -19 -56 -4 -22 12 -28 23 -28 49 0 25 -5 35 -22 41 -19 7 -25 4 -36
-16 -12 -21 -19 -24 -45 -19 -33 7 -47 21 -47 47 0 15 -19 29 -40 29 -4 0 -13
-13 -19 -30 -9 -27 -14 -30 -50 -30 -27 0 -41 4 -41 13 0 21 -24 44 -41 40z
m193 -380 l37 -15 -51 -68 c-28 -37 -57 -66 -63 -64 -13 5 -44 141 -37 162 4
14 59 7 114 -15z m-156 -1 c1 -12 16 -116 19 -134 7 -34 -27 -27 -90 19 l-65
47 21 22 c23 25 101 65 109 57 3 -2 5 -8 6 -11z m285 -114 c17 -34 27 -79 14
-66 -3 3 -38 -1 -78 -8 -106 -18 -110 -9 -41 85 45 60 47 61 66 44 11 -10 29
-35 39 -55z m-371 -42 c30 -22 56 -41 58 -42 1 0 0 -8 -3 -16 -4 -11 -26 -18
-63 -23 -31 -3 -68 -9 -81 -12 -23 -6 -24 -4 -19 43 7 66 24 107 40 98 7 -4
38 -26 68 -48z m396 -131 c-4 -23 -13 -51 -20 -61 -13 -18 -17 -17 -70 20
-100 69 -99 80 15 99 84 15 85 14 75 -58z m-331 5 c7 -11 -56 -110 -82 -132
-17 -14 -42 10 -72 70 -24 48 -21 51 53 62 76 11 94 11 101 0z m262 -134 c-26
-25 -75 -55 -99 -61 -24 -6 -25 -5 -37 70 -18 111 -8 118 79 53 51 -38 65 -54
57 -62z m-192 84 c3 -5 8 -24 9 -42 2 -18 7 -52 10 -75 7 -42 6 -43 -22 -43
-31 0 -90 17 -109 32 -8 7 1 27 35 74 45 62 64 75 77 54z"/>
</g>
</svg>
